<?xml version="1.0" encoding="UTF-8"?>
<svg id="Laag_1" xmlns="http://www.w3.org/2000/svg" width="22.6mm" height="22.6mm" xmlns:xlink="http://www.w3.org/1999/xlink" version="1.1" viewBox="0 0 64 64">
  <!-- Generator: Adobe Illustrator 29.0.0, SVG Export Plug-In . SVG Version: 2.1.0 Build 186)  -->
  <defs>
    <style>
      .st0 {
        isolation: isolate;
      }

      .st1 {
        fill: #fff;
      }
    </style>
  </defs>
  <path class="st1" d="M58,62.6l-.4-.5s0-4.1-2.3-8.1c0-1.7-.1-2.7-.5-4.5-.3-1.3-.5-2.6-.8-3.7h0c-.5-2.1-1-3.8-1.2-4.4h0s-.3-2.8.3-5.5c.5-2.7.5-4.1.5-5.4.5-.8.6-2.1-.3-3h-.1c-.1-.3-.3-.3-.4-.4s-.4-.3-.6-.4c-.3-.1-.6-.3-.9-.3.1-1.7-.3-3.5-.6-4.9.4-.3.8-.6.9-.9.1-.3.1-.5.1-.8.3-.4.5-.9.6-1.4.8-1.9-.6-2.1-.6-2.1.4-1,0-2.6-2.4-3.5-2.2-.9-3.1-.1-4.4.6-1.2.6-2.7,0-2.7,0,.3,1.7,1.3,2.6,2.6,3.1-.4.6-.6,1.3-.8,1.9-.1.4-.3.8-.3,1-.3.3-.5.5-.8.9-.5.8,0,.8.5.8l-.8,1.4-3.5-3.3c.5,0,.8-.1.8-.1.8-2.3.8-4.2.5-5.8,2.4,0,3.6-1.5,4-2.2.6-.5,1.3-1,1.4-1.8,0,0-2.4,1.7-3.3-2.1-.9-3.8-2.4-6.2-3.8-6.8-1.3-.6-4.4-1.7-6.2.9-.6,1-.4,2.3-.4,2.3h.1c-.1.9-.6,3.6,1.2,5,.5.4,1.2.6,1.8.8h0q0,.1-.1.3c-.3-.1-.5-.1-.6.1-1.7.1-3.6,0-5.3-.4v-.6c0-.1,0-.3-.1-.4.1-.3.1-.5.1-.8s0-.4-.1-.5v-.5l2.3-1.4-2.6-.9-.6-2.6-1.7,2.2h-2.7c0-.1,1.5,1.8,1.5,1.8l-1,2.6h.5c.1,0,.3.1.4.3h0c.1.3.3.5.5.6v.4c-.3-.1-.4-.1-.5-.3h-.3l-3.5-5.8h-.1l-9.6,15.9c-.1,0-.3-.1-.5-.1-.9,0-1.5.6-1.5,1.5s.6,1.5,1.5,1.5,1.5-.6,1.5-1.5v-.4c.3.1.5.3.9.4l-4,6.5s.9.6,2.4,1.3l-4.2,7.1c-.3-.1-.5-.3-.8-.3-.9.3-1.5,1-1.5,1.9s.6,1.5,1.5,1.5,1.5-.6,1.5-1.5v-.4c.4.3.9.5,1.7.8l-1.2,2.1h0l-2.8,4.4c-.3-.1-.5-.3-.8-.3-.9,0-1.5.6-1.5,1.5s.6,1.5,1.5,1.5,1.5-.6,1.5-1.5v-.3c1.2.6,3.3,1.7,6.4,2.4-.4.3-.6.8-.6,1.3,0,.9.6,1.5,1.5,1.5s1.5-.6,1.5-1.5-.1-.6-.3-.9c1.2.1,2.3.3,3.6.4v4.7h-3.1c-.6,0-1.3.5-1.3,1.3s.5,1.3,1.3,1.3h.1l.3.8h0l1.8,6.9h6l2.1-7.7h.1c.6,0,1.3-.5,1.3-1.3s-.5-1.3-1.3-1.3h-3.1v-4.7c.8,0,1.5-.1,2.3-.3-.3.3-.4.6-.4,1,0,.9.6,1.5,1.5,1.5s1.5-.6,1.5-1.5-.3-1-.8-1.4c3.7-.6,6.3-1.8,7.7-2.6v.4c0,.9.6,1.5,1.5,1.5s1.5-.6,1.5-1.5-.6-1.5-1.5-1.5-.4,0-.5.1l-3.8-6.4c.6-.3,1.3-.5,1.7-.8h0c0,.9.6,1.5,1.5,1.5s1.5-.6,1.5-1.5-.6-1.5-1.5-1.5-.8.1-1,.4l-4.1-6.9c.4-.1.8-.3,1-.5v.3c0,.9.6,1.5,1.5,1.5s1.5-.6,1.5-1.5-.6-1.5-1.5-1.5h-.4l-3.7-6.2c.3-.1.5-.1.6-.3,0,.1-.1.3-.1.5,0,.9.6,1.5,1.5,1.5s.5-.1.8-.3v.4s.5.5,1.8.9c.5,1.5,1.3,3.2,1.9,4.1,0,0-.1.5-.9,1.3s0,1.9,1.3,1.2c.6-.5,1.3-1.2,1.7-1.7,0,.5.1,1.2.9,1.3,1.2.1,1.8-.9,1.7-2.1s-.8-1.4-.8-1.4c0,0-.1-.1-.3-.5,1.4.8,3,1.7,4.1,2.4-.5,2.6.6,4.4.9,5.8.9,4.2,1.4,6.9,1.4,6.9v1.3h.1v2.6h.1l1.3,17.1s0,.4-1.4.4h-2.1c-.3.1-1,.6-1.2,1.3h3.6c0-.1,1.7-.1,1.7-.1h.1c0,.1,2.2.1,2.2.1l-.3-1.7s1-3.7-.5-7.8c.6-5.3.3-6.8.3-7.7.1-.1-.1-.1.3-.1.3,1.4,4.7,15.7,4.7,15.7l.3.5s-.9.4-.9,1.2h4.6c.3-.3.1-.9-.8-1.4ZM25.9,8.1c0,.1.1.1.3.3h0c-.1,0-.3-.1-.4-.1h.1ZM25.6,10.5c.1.4.4.6.6.6h.4c.4.3.9.4,1.8.5h0c.4.4,1.7,1.4,4.4,1.7-.6,2.2-.8,4.4-.8,4.4.1,0,.1.1.3.1-.1.5-.1,1.3-.3,2.2-.3-.1-.4-.1-.6-.1h-.1l-5.6-9.4h0Z"/>
  <image class="st0" width="1240" height="1216" transform="translate(20.9 .4) scale(0)" xlink:href="Activiteiten-1.png"/>
</svg>