<?xml version="1.0" encoding="UTF-8"?>
<svg id="Laag_1" data-name="Laag 1" xmlns="http://www.w3.org/2000/svg" width="22.35mm" height="19.24mm" xmlns:xlink="http://www.w3.org/1999/xlink" viewBox="0 0 63.35 54.54">
  <defs>
    <linearGradient id="Naamloos_verloop" data-name="Naamloos verloop" x1="-697.27" y1="993.51" x2="-696.79" y2="1032.28" gradientTransform="translate(-1087.64 -496.84) rotate(150.37) scale(1 -1)" gradientUnits="userSpaceOnUse">
      <stop offset="0" stop-color="#fff" stop-opacity="0"/>
      <stop offset=".13" stop-color="#fef7eb" stop-opacity=".13"/>
      <stop offset=".41" stop-color="#fce3b6" stop-opacity=".41"/>
      <stop offset=".79" stop-color="#fac362" stop-opacity=".79"/>
      <stop offset="1" stop-color="#f8b133"/>
    </linearGradient>
    <linearGradient id="Naamloos_verloop_2" data-name="Naamloos verloop 2" x1="144.71" y1="514.51" x2="145.19" y2="553.29" gradientTransform="translate(178.07 -496.84) rotate(29.63)" gradientUnits="userSpaceOnUse">
      <stop offset="0" stop-color="#fff" stop-opacity="0"/>
      <stop offset=".13" stop-color="#fef7eb" stop-opacity=".13"/>
      <stop offset=".41" stop-color="#fce3b6" stop-opacity=".41"/>
      <stop offset=".79" stop-color="#fac362" stop-opacity=".79"/>
      <stop offset="1" stop-color="#f8b133"/>
    </linearGradient>
  </defs>
  <path d="M25.72,2.6c-1.14-1.39-3.04.51-1.9,1.77,1.39,1.01,3.04-.63,1.9-1.77M27.37,9.69h0c2.53,2.28,1.39,8.35-3.92,3.42l-7.21-6.33c-2.53-2.28,2.02-6.45,4.56-4.05v.13c-.38.38-.89,1.27-.89,2.02l.25-.13c1.77-1.52,4.3.76,2.53,2.15l-.63.51.63.63c.63.63,1.9.63,2.53,0l2.15,1.64h0ZM38.88,15.51c-1.27-1.14-3.04.76-1.9,1.9,1.14,1.01,3.04-.63,1.9-1.9M40.53,22.72h0c2.53,2.28,1.39,8.35-4.05,3.42-2.28-2.15-4.56-4.18-7.09-6.45-2.53-2.28,2.15-6.2,4.68-3.92-.63.51-1.01,1.52-1.01,2.28l.38-.38c1.64-1.27,4.05.76,2.53,2.28-.25.13-.38.38-.63.51l.38.38c.89.76,2.15.76,2.78,0,.51.76,1.14,1.39,2.02,1.9M51.91,28.41c-1.27-1.14-3.04.76-1.9,1.9s3.04-.51,1.9-1.9M53.56,35.75h0c2.53,2.28,1.39,8.35-4.05,3.42l-6.96-6.45c-2.78-2.28,2.02-6.2,4.43-3.92-.63.51-1.01,1.52-1.14,2.28l.38-.38c1.64-1.27,4.05.76,2.53,2.28l-.51.51.38.38c.89.76,2.15.76,2.78,0l2.15,1.9v-.02ZM1.43.07h0c2.66-.38,5.44.76,7.72,2.28,1.01.63,9.11,7.72,9.11,7.72l33.78,33.52c2.66,2.78,6.33,4.05,9.87,4.68,2.28.38,1.64,3.67-.38,3.29-2.28-.25-4.05-.76-5.69-1.39v2.66c0,2.28-3.42,2.28-3.42,0v-4.3c-2.78-2.02-6.71-6.07-8.86-8.48v12.65c0,2.28-3.42,2.28-3.42,0v-16.32l-8.86-8.86v25.04c0,2.28-3.42,2.28-3.42,0v-28.21l-8.86-9.11v37.32c0,2.28-3.42,2.28-3.42,0V11.97c-2.78-2.53-5.06-4.81-8.35-6.83-.13-.13-.38-.13-.76-.38v47.82c0,2.28-3.29,2.28-3.29,0L1.94,3.49C-.21,4-.84.58,1.43.07" style="fill: #fff;"/>
  <g>
    <g>
      <rect x="23.27" y="51.61" width="3.29" height="1.52" transform="translate(-22.63 19.17) rotate(-29.63)" style="fill: #fff;"/>
      <rect x="24.3" y="52.95" width="2.02" height=".76" transform="translate(-23.06 19.49) rotate(-29.63)" style="fill: #fff;"/>
    </g>
    <polygon points="25.72 50.55 15.99 13.61 .17 25.5 22.81 52.07 25.72 50.55" style="fill: url(#Naamloos_verloop);"/>
  </g>
  <g>
    <g>
      <rect x="33.2" y="50.66" width="1.52" height="3.29" transform="translate(-28.3 55.96) rotate(-60.37)" style="fill: #fff;"/>
      <rect x="33.07" y="52.18" width=".76" height="2.02" transform="translate(-29.32 55.96) rotate(-60.37)" style="fill: #fff;"/>
    </g>
    <polygon points="33.19 50.43 42.93 13.49 58.75 25.37 36.1 52.07 33.19 50.43" style="fill: url(#Naamloos_verloop_2);"/>
  </g>
</svg>